<svg xmlns="http://www.w3.org/2000/svg" viewBox="0 0 32 32" id="ChatBot"><g data-name="Chat Bot" fill="#000000" class="color000000 svgShape"><path fill="#0a1d37" d="M24,30H8a4,4,0,0,1-4-4V14a4,4,0,0,1,4-4h7a1,1,0,0,1,0,2H8a2,2,0,0,0-2,2V26a2,2,0,0,0,2,2H24a2,2,0,0,0,2-2V18a1,1,0,0,1,2,0v8A4,4,0,0,1,24,30Z" class="color38004d svgShape"></path><path fill="#0a1d37" d="M5,25H3a3,3,0,0,1-3-3V16a1,1,0,0,1,1-1H5a1,1,0,0,1,1,1v8A1,1,0,0,1,5,25ZM2,17v5a1,1,0,0,0,1,1H4V17Z" class="color38004d svgShape"></path><path fill="#0a1d37" d="M1,23a1,1,0,0,1-1-1V6A1,1,0,0,1,2,6V22A1,1,0,0,1,1,23Z" class="color38004d svgShape"></path><path fill="#87ddfd" d="M21,16c-.54,0-.59-.18-2.41-2H17a3,3,0,0,1-3-3V5a3,3,0,0,1,3-3H29a3,3,0,0,1,3,3v6a3,3,0,0,1-3,3H23.41C21.61,15.8,21.55,16,21,16ZM17,4a1,1,0,0,0-1,1v6a1,1,0,0,0,1,1h2c.55,0,.69.27,2,1.59l1.29-1.3A1,1,0,0,1,23,12h6a1,1,0,0,0,1-1V5a1,1,0,0,0-1-1Z" class="color9f85ec svgShape"></path><path fill="#0a1d37" d="M14 21a1 1 0 01-.71-.29 1.81 1.81 0 00-2.58 0 1 1 0 01-1.42-1.42 3.84 3.84 0 015.42 0A1 1 0 0114 21zM22.17 21a1 1 0 01-.71-.29 1.81 1.81 0 00-2.58 0 1 1 0 01-1.42-1.42 3.84 3.84 0 015.42 0A1 1 0 0122.17 21z" class="color38004d svgShape"></path><path fill="#87ddfd" d="M19 9a1 1 0 111-1A1 1 0 0119 9zM23 9a1 1 0 111-1A1 1 0 0123 9zM27 9a1 1 0 111-1A1 1 0 0127 9z" class="color9f85ec svgShape"></path><path fill="#0a1d37" d="M19,26H13a1,1,0,0,1,0-2h6a1,1,0,0,1,0,2Z" class="color38004d svgShape"></path></g></svg>